<svg width="385" height="385" viewBox="0 0 385 385" fill="none" xmlns="http://www.w3.org/2000/svg">
<g clip-path="url(#clip0)">
<path d="M12.03 84.212H372.939C379.58 84.212 384.969 78.822 384.969 72.182C384.969 65.541 379.579 60.152 372.939 60.152H12.03C5.39 60.152 0 65.541 0 72.182C0 78.823 5.39 84.212 12.03 84.212Z" fill="white"/>
<path d="M372.939 180.455H12.03C5.389 180.455 0 185.845 0 192.485C0 199.125 5.39 204.515 12.03 204.515H372.939C379.58 204.515 384.969 199.125 384.969 192.485C384.969 185.845 379.58 180.455 372.939 180.455Z" fill="white"/>
<path d="M372.939 300.758H12.03C5.389 300.758 0 306.148 0 312.788C0 319.429 5.39 324.818 12.03 324.818H372.939C379.58 324.818 384.969 319.428 384.969 312.788C384.97 306.147 379.58 300.758 372.939 300.758Z" fill="white"/>
</g>
<defs>
<clipPath id="clip0">
<rect width="384.97" height="384.97" fill="white"/>
</clipPath>
</defs>
</svg>
