<svg width="171" height="165" viewBox="0 0 171 165" fill="none" xmlns="http://www.w3.org/2000/svg">
<path d="M42.594 114.915C41.1311 113.452 38.7611 113.452 37.2987 114.915L18.4413 133.778C16.9784 135.24 16.9784 137.609 18.4413 139.072C19.1728 139.804 20.1304 140.167 21.0885 140.167C22.0466 140.167 23.0047 139.804 23.739 139.072L42.5963 120.21C44.0565 118.752 44.0565 116.383 42.594 114.915Z" fill="#8B1CDA"/>
<path d="M160.7 9.71058C154.44 3.44972 145.682 0 136.052 0C123.482 0 110.586 5.68684 100.668 15.6078C95.0002 21.2775 90.6114 28.1021 87.9563 35.3671L75.9055 54.2546C74.0478 53.6731 71.4907 53.1358 68.3773 53.1358C57.2776 53.1358 40.7117 59.8388 24.8215 91.7659C24.0557 93.3003 24.4337 95.1525 25.7355 96.2791C27.0373 97.3905 28.9316 97.4783 30.3333 96.4937C30.4675 96.4013 43.7518 87.1124 54.2254 87.1124C54.981 87.1124 55.7004 87.1663 56.378 87.2712L49.6518 98.1271C48.7517 99.5779 48.9491 101.455 50.1292 102.688L68.8528 122.243C70.091 123.54 72.0778 123.774 73.5871 122.803L84.9357 115.484C86.1112 122.277 86.7377 134.613 78.1022 142.141C76.7466 143.324 76.4224 145.303 77.3294 146.858C78.0145 148.031 79.26 148.709 80.5618 148.709C80.9812 148.709 81.4052 148.64 81.8148 148.489C82.2537 148.333 124.79 132.73 117.768 95.1422L139.535 80.5794C144.099 78.4022 148.41 75.5167 152.359 71.9964C152.632 71.8088 152.881 71.5868 153.09 71.3369L153.205 71.2348C153.746 70.7532 154.284 70.2692 154.797 69.7523C172.977 51.5637 175.627 24.6343 160.7 9.71058ZM101.938 80.9519C94.1364 80.9519 87.7905 74.606 87.7905 66.807C87.7905 59.0056 94.1364 52.6598 101.938 52.6598C109.74 52.6598 116.085 59.0056 116.085 66.807C116.085 74.606 109.74 80.9519 101.938 80.9519ZM127.734 60.5656C117.871 60.5656 109.844 52.5404 109.844 42.6738C109.844 32.8076 117.87 24.782 127.734 24.782C137.6 24.782 145.625 32.8076 145.625 42.6738C145.625 52.5404 137.6 60.5656 127.734 60.5656Z" fill="#8B1CDA"/>
<path d="M57.1801 125.423L1.84336 158.03C0.0613718 159.078 -0.530765 161.375 0.519755 163.162C1.21685 164.349 2.46522 165 3.74795 165C4.39628 165 5.04972 164.839 5.64929 164.481L60.9855 131.873C62.7675 130.825 63.3573 128.529 62.3068 126.744C61.2586 124.974 58.9644 124.369 57.1801 125.423Z" fill="#8B1CDA"/>
<path d="M44.9732 145.843L26.1354 158.118C24.404 159.246 23.9122 161.567 25.0412 163.3C25.7601 164.395 26.9569 165 28.1811 165C28.8834 165 29.593 164.804 30.2241 164.395L49.062 152.123C50.7933 150.991 51.2828 148.667 50.1543 146.939C49.0253 145.204 46.7041 144.714 44.9732 145.843Z" fill="#8B1CDA"/>
</svg>
