<?xml version="1.0" encoding="iso-8859-1"?>
<!-- Generator: Adobe Illustrator 16.0.0, SVG Export Plug-In . SVG Version: 6.00 Build 0)  -->
<!DOCTYPE svg PUBLIC "-//W3C//DTD SVG 1.1//EN" "http://www.w3.org/Graphics/SVG/1.1/DTD/svg11.dtd">
<svg version="1.1" id="Capa_1" xmlns="http://www.w3.org/2000/svg" xmlns:xlink="http://www.w3.org/1999/xlink" x="0px" y="0px"
	 width="366.845px" height="366.845px" viewBox="0 0 366.845 366.845" style="enable-background:new 0 0 366.845 366.845;"
	 xml:space="preserve">
<g>
	<g>
		<path d="M91.714,253.218c-3.15-3.149-8.253-3.149-11.402,0l-40.604,40.616c-3.15,3.149-3.15,8.251,0,11.4
			c1.575,1.576,3.637,2.358,5.7,2.358c2.063,0,4.126-0.782,5.707-2.358l40.604-40.613C94.863,261.481,94.863,256.379,91.714,253.218
			z"/>
		<g>
			<path d="M219.495,135.296c-7.912,0-14.337,6.431-14.337,14.336c0,7.902,6.425,14.331,14.337,14.331
				c7.91,0,14.335-6.428,14.335-14.331C233.83,141.727,227.405,135.296,219.495,135.296z"/>
			<path d="M346.022,26.691c-13.48-13.481-32.337-20.909-53.073-20.909c-27.065,0-54.834,12.245-76.188,33.607
				c-12.205,12.208-21.655,26.903-27.372,42.546l-25.948,40.669c-4-1.252-9.506-2.409-16.21-2.409
				c-23.9,0-59.57,14.433-93.785,83.179c-1.649,3.304-0.835,7.292,1.968,9.718c2.803,2.393,6.882,2.582,9.9,0.462
				c0.289-0.199,28.893-20.2,51.445-20.2c1.627,0,3.176,0.116,4.635,0.342l-14.483,23.375c-1.938,3.124-1.513,7.165,1.028,9.821
				l40.316,42.106c2.666,2.792,6.944,3.296,10.194,1.206l24.436-15.759c2.531,14.626,3.88,41.188-14.714,57.397
				c-2.919,2.547-3.617,6.809-1.664,10.158c1.475,2.524,4.157,3.984,6.96,3.984c0.903,0,1.816-0.147,2.698-0.473
				c0.945-0.335,92.536-33.932,77.414-114.867l46.871-31.357c9.827-4.688,19.108-10.901,27.611-18.481
				c0.589-0.404,1.124-0.882,1.576-1.42l0.246-0.22c1.166-1.037,2.325-2.079,3.428-3.192
				C372.457,116.81,378.164,58.825,346.022,26.691z M219.495,180.089c-16.799,0-30.463-13.664-30.463-30.457
				c0-16.798,13.664-30.462,30.463-30.462c16.798,0,30.462,13.664,30.462,30.462C249.957,166.425,236.293,180.089,219.495,180.089z
				 M275.038,136.193c-21.237,0-38.52-17.28-38.52-38.525c0-21.244,17.282-38.525,38.52-38.525
				c21.245,0,38.525,17.281,38.525,38.525C313.563,118.913,296.283,136.193,275.038,136.193z"/>
			<path d="M275.038,75.269c-12.346,0-22.394,10.047-22.394,22.399c0,12.352,10.048,22.399,22.394,22.399
				c12.354,0,22.4-10.047,22.4-22.399C297.438,85.316,287.392,75.269,275.038,75.269z"/>
			<path d="M123.121,275.845L3.969,346.055c-3.837,2.257-5.112,7.202-2.85,11.05c1.501,2.557,4.189,3.958,6.951,3.958
				c1.396,0,2.803-0.346,4.094-1.118l119.151-70.211c3.837-2.257,5.107-7.201,2.845-11.045
				C131.903,274.879,126.963,273.575,123.121,275.845z"/>
			<path d="M96.837,319.813l-40.562,26.431c-3.728,2.429-4.787,7.428-2.356,11.159c1.548,2.358,4.125,3.659,6.761,3.659
				c1.512,0,3.04-0.42,4.399-1.301l40.562-26.426c3.728-2.437,4.782-7.44,2.352-11.161
				C105.562,318.438,100.564,317.383,96.837,319.813z"/>
			<path d="M80.968,295.66c1.534,0,3.087-0.437,4.457-1.349l36.4-24.19c3.712-2.462,4.72-7.469,2.252-11.175
				c-2.462-3.7-7.475-4.726-11.177-2.253l-36.399,24.189c-3.711,2.462-4.72,7.475-2.252,11.175
				C75.797,294.405,78.354,295.66,80.968,295.66z"/>
		</g>
	</g>
</g>
<g>
</g>
<g>
</g>
<g>
</g>
<g>
</g>
<g>
</g>
<g>
</g>
<g>
</g>
<g>
</g>
<g>
</g>
<g>
</g>
<g>
</g>
<g>
</g>
<g>
</g>
<g>
</g>
<g>
</g>
</svg>
