<svg width="615" height="165" viewBox="0 0 615 165" fill="none" xmlns="http://www.w3.org/2000/svg">
<path d="M42.594 114.915C41.1311 113.452 38.7611 113.452 37.2987 114.915L18.4413 133.778C16.9784 135.24 16.9784 137.609 18.4413 139.072C19.1728 139.804 20.1304 140.167 21.0885 140.167C22.0466 140.167 23.0047 139.804 23.739 139.072L42.5963 120.21C44.0565 118.752 44.0565 116.383 42.594 114.915Z" fill="white"/>
<path d="M101.938 60.149C98.2637 60.149 95.2798 63.1357 95.2798 66.807C95.2798 70.4768 98.2637 73.4626 101.938 73.4626C105.612 73.4626 108.596 70.4773 108.596 66.807C108.596 63.1357 105.612 60.149 101.938 60.149Z" fill="white"/>
<path d="M160.7 9.71058C154.44 3.44972 145.682 0 136.052 0C123.482 0 110.586 5.68684 100.668 15.6078C95.0002 21.2775 90.6114 28.1021 87.9563 35.3671L75.9055 54.2546C74.0478 53.6731 71.4907 53.1358 68.3773 53.1358C57.2776 53.1358 40.7117 59.8388 24.8215 91.7659C24.0557 93.3003 24.4337 95.1525 25.7355 96.2791C27.0373 97.3905 28.9316 97.4783 30.3333 96.4937C30.4675 96.4013 43.7518 87.1124 54.2254 87.1124C54.981 87.1124 55.7004 87.1663 56.378 87.2712L49.6518 98.1271C48.7517 99.5779 48.9491 101.455 50.1292 102.688L68.8528 122.243C70.091 123.54 72.0778 123.774 73.5871 122.803L84.9357 115.484C86.1112 122.277 86.7377 134.613 78.1022 142.141C76.7466 143.324 76.4224 145.303 77.3294 146.858C78.0145 148.031 79.26 148.709 80.5618 148.709C80.9812 148.709 81.4052 148.64 81.8148 148.489C82.2537 148.333 124.79 132.73 117.767 95.1422L139.535 80.5794C144.099 78.4022 148.41 75.5167 152.359 71.9964C152.632 71.8088 152.881 71.5868 153.09 71.3369L153.205 71.2348C153.746 70.7532 154.284 70.2692 154.797 69.7523C172.977 51.5637 175.627 24.6343 160.7 9.71058ZM101.938 80.9519C94.1364 80.9519 87.7905 74.606 87.7905 66.807C87.7905 59.0056 94.1364 52.6598 101.938 52.6598C109.74 52.6598 116.085 59.0056 116.085 66.807C116.085 74.606 109.74 80.9519 101.938 80.9519ZM127.734 60.5656C117.871 60.5656 109.844 52.5404 109.844 42.6738C109.844 32.8076 117.87 24.782 127.734 24.782C137.6 24.782 145.625 32.8076 145.625 42.6738C145.625 52.5404 137.6 60.5656 127.734 60.5656Z" fill="white"/>
<path d="M127.733 32.2712C122 32.2712 117.333 36.9373 117.333 42.6738C117.333 48.4103 122 53.0764 127.733 53.0764C133.471 53.0764 138.137 48.4103 138.137 42.6738C138.137 36.9373 133.471 32.2712 127.733 32.2712Z" fill="white"/>
<path d="M57.1801 125.423L1.84336 158.03C0.0613718 159.078 -0.530765 161.375 0.519755 163.162C1.21685 164.349 2.46522 165 3.74795 165C4.39628 165 5.04972 164.839 5.64929 164.481L60.9855 131.873C62.7675 130.825 63.3573 128.529 62.3068 126.744C61.2586 124.974 58.9644 124.369 57.1801 125.423Z" fill="white"/>
<path d="M44.9732 145.843L26.1354 158.118C24.404 159.246 23.9122 161.567 25.0412 163.3C25.7601 164.395 26.9569 165 28.1811 165C28.8834 165 29.593 164.804 30.2241 164.395L49.062 152.123C50.7933 150.991 51.2828 148.667 50.1543 146.939C49.0253 145.204 46.7041 144.714 44.9732 145.843Z" fill="white"/>
<path d="M37.6033 134.626C38.3158 134.626 39.037 134.423 39.6733 133.999L56.5782 122.765C58.3021 121.621 58.7703 119.296 57.6241 117.575C56.4807 115.856 54.1525 115.38 52.4332 116.528L35.5288 127.762C33.8053 128.906 33.3367 131.234 34.4829 132.952C35.2018 134.043 36.3893 134.626 37.6033 134.626Z" fill="white"/>
<path d="M198.84 69V35.736H221.304V42.024H206.328V48.552H219.624V54.696H206.328V62.712H222.408V69H198.84ZM235.437 62.904C235.789 62.936 236.189 62.968 236.637 63C237.117 63 237.677 63 238.317 63C242.061 63 244.829 62.056 246.621 60.168C248.445 58.28 249.357 55.672 249.357 52.344C249.357 48.856 248.493 46.216 246.765 44.424C245.037 42.632 242.301 41.736 238.557 41.736C238.045 41.736 237.517 41.752 236.973 41.784C236.429 41.784 235.917 41.816 235.437 41.88V62.904ZM257.085 52.344C257.085 55.224 256.637 57.736 255.741 59.88C254.845 62.024 253.565 63.8 251.901 65.208C250.269 66.616 248.269 67.672 245.901 68.376C243.533 69.08 240.877 69.432 237.933 69.432C236.589 69.432 235.021 69.368 233.229 69.24C231.437 69.144 229.677 68.92 227.949 68.568V36.168C229.677 35.848 231.469 35.64 233.325 35.544C235.213 35.416 236.829 35.352 238.173 35.352C241.021 35.352 243.597 35.672 245.901 36.312C248.237 36.952 250.237 37.96 251.901 39.336C253.565 40.712 254.845 42.472 255.741 44.616C256.637 46.76 257.085 49.336 257.085 52.344ZM276.348 69.672C274.012 69.672 271.996 69.352 270.3 68.712C268.604 68.04 267.196 67.128 266.076 65.976C264.988 64.792 264.172 63.4 263.628 61.8C263.116 60.168 262.86 58.376 262.86 56.424V35.736H270.348V55.8C270.348 57.144 270.492 58.296 270.78 59.256C271.1 60.184 271.516 60.952 272.028 61.56C272.572 62.136 273.212 62.552 273.948 62.808C274.716 63.064 275.548 63.192 276.444 63.192C278.268 63.192 279.74 62.632 280.86 61.512C282.012 60.392 282.588 58.488 282.588 55.8V35.736H290.076V56.424C290.076 58.376 289.804 60.168 289.26 61.8C288.716 63.432 287.884 64.84 286.764 66.024C285.644 67.176 284.22 68.072 282.492 68.712C280.764 69.352 278.716 69.672 276.348 69.672ZM297.278 35.736H304.766V69H297.278V35.736ZM321.297 35.736C321.873 36.792 322.529 38.104 323.265 39.672C324.033 41.208 324.817 42.888 325.617 44.712C326.449 46.504 327.265 48.344 328.065 50.232C328.865 52.12 329.617 53.896 330.321 55.56C331.025 53.896 331.777 52.12 332.577 50.232C333.377 48.344 334.177 46.504 334.977 44.712C335.809 42.888 336.593 41.208 337.329 39.672C338.097 38.104 338.769 36.792 339.345 35.736H346.161C346.481 37.944 346.769 40.424 347.025 43.176C347.313 45.896 347.553 48.744 347.745 51.72C347.969 54.664 348.161 57.624 348.321 60.6C348.513 63.576 348.673 66.376 348.801 69H341.505C341.409 65.768 341.281 62.248 341.121 58.44C340.961 54.632 340.721 50.792 340.401 46.92C339.825 48.264 339.185 49.752 338.481 51.384C337.777 53.016 337.073 54.648 336.369 56.28C335.697 57.912 335.041 59.48 334.401 60.984C333.761 62.456 333.217 63.72 332.769 64.776H327.537C327.089 63.72 326.545 62.456 325.905 60.984C325.265 59.48 324.593 57.912 323.889 56.28C323.217 54.648 322.529 53.016 321.825 51.384C321.121 49.752 320.481 48.264 319.905 46.92C319.585 50.792 319.345 54.632 319.185 58.44C319.025 62.248 318.897 65.768 318.801 69H311.505C311.633 66.376 311.777 63.576 311.937 60.6C312.129 57.624 312.321 54.664 312.513 51.72C312.737 48.744 312.977 45.896 313.233 43.176C313.521 40.424 313.825 37.944 314.145 35.736H321.297ZM365.527 35.352C370.487 35.352 374.295 36.232 376.951 37.992C379.607 39.72 380.935 42.568 380.935 46.536C380.935 50.536 379.591 53.432 376.903 55.224C374.215 56.984 370.375 57.864 365.383 57.864H363.031V69H355.543V36.216C357.175 35.896 358.903 35.672 360.727 35.544C362.551 35.416 364.151 35.352 365.527 35.352ZM366.007 41.736C365.463 41.736 364.919 41.752 364.375 41.784C363.863 41.816 363.415 41.848 363.031 41.88V51.48H365.383C367.975 51.48 369.927 51.128 371.239 50.424C372.551 49.72 373.207 48.408 373.207 46.488C373.207 45.56 373.031 44.792 372.679 44.184C372.359 43.576 371.879 43.096 371.239 42.744C370.631 42.36 369.879 42.104 368.983 41.976C368.087 41.816 367.095 41.736 366.007 41.736ZM399.442 69.672C397.106 69.672 395.09 69.352 393.394 68.712C391.698 68.04 390.29 67.128 389.17 65.976C388.082 64.792 387.266 63.4 386.722 61.8C386.21 60.168 385.954 58.376 385.954 56.424V35.736H393.442V55.8C393.442 57.144 393.586 58.296 393.874 59.256C394.194 60.184 394.61 60.952 395.122 61.56C395.666 62.136 396.306 62.552 397.042 62.808C397.81 63.064 398.642 63.192 399.538 63.192C401.362 63.192 402.834 62.632 403.954 61.512C405.106 60.392 405.682 58.488 405.682 55.8V35.736H413.17V56.424C413.17 58.376 412.898 60.168 412.354 61.8C411.81 63.432 410.978 64.84 409.858 66.024C408.738 67.176 407.314 68.072 405.586 68.712C403.858 69.352 401.81 69.672 399.442 69.672ZM442.595 62.568V69H420.371V35.736H427.859V62.568H442.595ZM457.287 63.288C458.343 63.288 459.207 63.208 459.879 63.048C460.583 62.856 461.143 62.616 461.559 62.328C461.975 62.008 462.263 61.64 462.423 61.224C462.583 60.808 462.663 60.344 462.663 59.832C462.663 58.744 462.151 57.848 461.127 57.144C460.103 56.408 458.343 55.624 455.847 54.792C454.759 54.408 453.671 53.976 452.583 53.496C451.495 52.984 450.519 52.36 449.655 51.624C448.791 50.856 448.087 49.944 447.543 48.888C446.999 47.8 446.727 46.488 446.727 44.952C446.727 43.416 447.015 42.04 447.591 40.824C448.167 39.576 448.983 38.52 450.039 37.656C451.095 36.792 452.375 36.136 453.879 35.688C455.383 35.208 457.079 34.968 458.967 34.968C461.207 34.968 463.143 35.208 464.775 35.688C466.407 36.168 467.751 36.696 468.807 37.272L466.647 43.176C465.719 42.696 464.679 42.28 463.527 41.928C462.407 41.544 461.047 41.352 459.447 41.352C457.655 41.352 456.359 41.608 455.559 42.12C454.791 42.6 454.407 43.352 454.407 44.376C454.407 44.984 454.551 45.496 454.839 45.912C455.127 46.328 455.527 46.712 456.039 47.064C456.583 47.384 457.191 47.688 457.863 47.976C458.567 48.232 459.335 48.504 460.167 48.792C461.895 49.432 463.399 50.072 464.679 50.712C465.959 51.32 467.015 52.04 467.847 52.872C468.711 53.704 469.351 54.68 469.767 55.8C470.183 56.92 470.391 58.28 470.391 59.88C470.391 62.984 469.303 65.4 467.127 67.128C464.951 68.824 461.671 69.672 457.287 69.672C455.815 69.672 454.487 69.576 453.303 69.384C452.119 69.224 451.063 69.016 450.135 68.76C449.239 68.504 448.455 68.232 447.783 67.944C447.143 67.656 446.599 67.384 446.151 67.128L448.263 61.176C449.255 61.72 450.471 62.216 451.911 62.664C453.383 63.08 455.175 63.288 457.287 63.288ZM482.441 52.344C482.441 53.976 482.633 55.448 483.017 56.76C483.433 58.072 484.009 59.208 484.745 60.168C485.513 61.096 486.441 61.816 487.529 62.328C488.617 62.84 489.865 63.096 491.273 63.096C492.649 63.096 493.881 62.84 494.969 62.328C496.089 61.816 497.017 61.096 497.753 60.168C498.521 59.208 499.097 58.072 499.481 56.76C499.897 55.448 500.105 53.976 500.105 52.344C500.105 50.712 499.897 49.24 499.481 47.928C499.097 46.584 498.521 45.448 497.753 44.52C497.017 43.56 496.089 42.824 494.969 42.312C493.881 41.8 492.649 41.544 491.273 41.544C489.865 41.544 488.617 41.816 487.529 42.36C486.441 42.872 485.513 43.608 484.745 44.568C484.009 45.496 483.433 46.632 483.017 47.976C482.633 49.288 482.441 50.744 482.441 52.344ZM507.833 52.344C507.833 55.192 507.401 57.704 506.537 59.88C505.705 62.024 504.553 63.832 503.081 65.304C501.609 66.744 499.849 67.832 497.801 68.568C495.785 69.304 493.609 69.672 491.273 69.672C489.001 69.672 486.857 69.304 484.841 68.568C482.825 67.832 481.065 66.744 479.561 65.304C478.057 63.832 476.873 62.024 476.009 59.88C475.145 57.704 474.713 55.192 474.713 52.344C474.713 49.496 475.161 47 476.057 44.856C476.953 42.68 478.153 40.856 479.657 39.384C481.193 37.912 482.953 36.808 484.937 36.072C486.953 35.336 489.065 34.968 491.273 34.968C493.545 34.968 495.689 35.336 497.705 36.072C499.721 36.808 501.481 37.912 502.985 39.384C504.489 40.856 505.673 42.68 506.537 44.856C507.401 47 507.833 49.496 507.833 52.344Z" fill="white"/>
<path d="M190.064 96.672C190.064 97.488 190.16 98.224 190.352 98.88C190.56 99.536 190.848 100.104 191.216 100.584C191.6 101.048 192.064 101.408 192.608 101.664C193.152 101.92 193.776 102.048 194.48 102.048C195.168 102.048 195.784 101.92 196.328 101.664C196.888 101.408 197.352 101.048 197.72 100.584C198.104 100.104 198.392 99.536 198.584 98.88C198.792 98.224 198.896 97.488 198.896 96.672C198.896 95.856 198.792 95.12 198.584 94.464C198.392 93.792 198.104 93.224 197.72 92.76C197.352 92.28 196.888 91.912 196.328 91.656C195.784 91.4 195.168 91.272 194.48 91.272C193.776 91.272 193.152 91.408 192.608 91.68C192.064 91.936 191.6 92.304 191.216 92.784C190.848 93.248 190.56 93.816 190.352 94.488C190.16 95.144 190.064 95.872 190.064 96.672ZM202.76 96.672C202.76 98.096 202.544 99.352 202.112 100.44C201.696 101.512 201.12 102.416 200.384 103.152C199.648 103.872 198.768 104.416 197.744 104.784C196.736 105.152 195.648 105.336 194.48 105.336C193.344 105.336 192.272 105.152 191.264 104.784C190.256 104.416 189.376 103.872 188.624 103.152C187.872 102.416 187.28 101.512 186.848 100.44C186.416 99.352 186.2 98.096 186.2 96.672C186.2 95.248 186.424 94 186.872 92.928C187.32 91.84 187.92 90.928 188.672 90.192C189.44 89.456 190.32 88.904 191.312 88.536C192.32 88.168 193.376 87.984 194.48 87.984C195.616 87.984 196.688 88.168 197.696 88.536C198.704 88.904 199.584 89.456 200.336 90.192C201.088 90.928 201.68 91.84 202.112 92.928C202.544 94 202.76 95.248 202.76 96.672ZM210.753 88.176C213.249 88.176 215.161 88.624 216.489 89.52C217.817 90.4 218.481 91.776 218.481 93.648C218.481 94.816 218.209 95.768 217.665 96.504C217.137 97.224 216.369 97.792 215.361 98.208C215.697 98.624 216.049 99.104 216.417 99.648C216.785 100.176 217.145 100.736 217.497 101.328C217.865 101.904 218.217 102.512 218.553 103.152C218.889 103.776 219.201 104.392 219.489 105H215.289C214.985 104.456 214.673 103.904 214.353 103.344C214.049 102.784 213.729 102.24 213.393 101.712C213.073 101.184 212.753 100.688 212.433 100.224C212.113 99.744 211.793 99.312 211.473 98.928H209.625V105H205.881V88.608C206.697 88.448 207.537 88.336 208.401 88.272C209.281 88.208 210.065 88.176 210.753 88.176ZM210.969 91.368C210.697 91.368 210.449 91.376 210.225 91.392C210.017 91.408 209.817 91.424 209.625 91.44V95.952H210.681C212.089 95.952 213.097 95.776 213.705 95.424C214.313 95.072 214.617 94.472 214.617 93.624C214.617 92.808 214.305 92.232 213.681 91.896C213.073 91.544 212.169 91.368 210.969 91.368ZM221.889 88.368H225.633V105H221.889V88.368ZM229.483 105V88.368H240.715V91.512H233.227V94.776H239.875V97.848H233.227V101.856H241.267V105H229.483ZM255.197 105C254.125 103.096 252.965 101.216 251.717 99.36C250.469 97.504 249.141 95.752 247.733 94.104V105H244.037V88.368H247.085C247.613 88.896 248.197 89.544 248.837 90.312C249.477 91.08 250.125 91.904 250.781 92.784C251.453 93.648 252.117 94.552 252.773 95.496C253.429 96.424 254.045 97.32 254.621 98.184V88.368H258.341V105H255.197ZM274.514 88.368V91.56H269.498V105H265.754V91.56H260.738V88.368H274.514ZM286.087 105C285.911 104.424 285.711 103.832 285.487 103.224C285.279 102.616 285.071 102.008 284.863 101.4H278.383C278.175 102.008 277.959 102.616 277.735 103.224C277.527 103.832 277.335 104.424 277.159 105H273.271C273.895 103.208 274.487 101.552 275.047 100.032C275.607 98.512 276.151 97.08 276.679 95.736C277.223 94.392 277.751 93.12 278.263 91.92C278.791 90.704 279.335 89.52 279.895 88.368H283.471C284.015 89.52 284.551 90.704 285.079 91.92C285.607 93.12 286.135 94.392 286.663 95.736C287.207 97.08 287.759 98.512 288.319 100.032C288.879 101.552 289.471 103.208 290.095 105H286.087ZM281.599 92.136C281.519 92.376 281.399 92.704 281.239 93.12C281.079 93.536 280.895 94.016 280.687 94.56C280.479 95.104 280.247 95.704 279.991 96.36C279.751 97.016 279.503 97.704 279.247 98.424H283.975C283.719 97.704 283.471 97.016 283.231 96.36C282.991 95.704 282.759 95.104 282.535 94.56C282.327 94.016 282.143 93.536 281.983 93.12C281.823 92.704 281.695 92.376 281.599 92.136ZM300.087 105.312C300.023 105.44 299.967 105.56 299.919 105.672C299.871 105.784 299.831 105.88 299.799 105.96C300.311 106.216 300.663 106.52 300.855 106.872C301.047 107.224 301.143 107.584 301.143 107.952C301.143 108.72 300.839 109.304 300.231 109.704C299.623 110.104 298.823 110.304 297.831 110.304C297.479 110.304 297.127 110.272 296.775 110.208C296.423 110.16 296.071 110.088 295.719 109.992L296.151 107.904C296.263 107.936 296.463 107.984 296.751 108.048C297.055 108.128 297.351 108.168 297.639 108.168C297.863 108.168 298.055 108.12 298.215 108.024C298.391 107.944 298.487 107.792 298.503 107.568C298.519 107.376 298.439 107.2 298.263 107.04C298.103 106.88 297.839 106.76 297.471 106.68L297.183 106.608C297.247 106.416 297.327 106.192 297.423 105.936C297.535 105.696 297.639 105.464 297.735 105.24C295.495 104.968 293.799 104.104 292.647 102.648C291.495 101.176 290.919 99.184 290.919 96.672C290.919 95.296 291.135 94.072 291.567 93C291.999 91.912 292.591 91 293.343 90.264C294.095 89.512 294.991 88.944 296.031 88.56C297.071 88.176 298.199 87.984 299.415 87.984C300.119 87.984 300.759 88.04 301.335 88.152C301.911 88.248 302.415 88.368 302.847 88.512C303.279 88.64 303.639 88.776 303.927 88.92C304.215 89.064 304.423 89.176 304.551 89.256L303.471 92.28C302.959 92.008 302.359 91.776 301.671 91.584C300.999 91.392 300.231 91.296 299.367 91.296C298.791 91.296 298.223 91.392 297.663 91.584C297.119 91.776 296.631 92.088 296.199 92.52C295.783 92.936 295.447 93.48 295.191 94.152C294.935 94.824 294.807 95.64 294.807 96.6C294.807 97.368 294.887 98.088 295.047 98.76C295.223 99.416 295.495 99.984 295.863 100.464C296.247 100.944 296.743 101.328 297.351 101.616C297.959 101.888 298.695 102.024 299.559 102.024C300.103 102.024 300.591 101.992 301.023 101.928C301.455 101.864 301.839 101.792 302.175 101.712C302.511 101.616 302.807 101.512 303.063 101.4C303.319 101.288 303.551 101.184 303.759 101.088L304.791 104.088C304.327 104.376 303.687 104.64 302.871 104.88C302.071 105.104 301.143 105.248 300.087 105.312ZM319.017 105C318.841 104.424 318.641 103.832 318.417 103.224C318.209 102.616 318.001 102.008 317.793 101.4H311.313C311.105 102.008 310.889 102.616 310.665 103.224C310.457 103.832 310.265 104.424 310.089 105H306.201C306.825 103.208 307.417 101.552 307.977 100.032C308.537 98.512 309.081 97.08 309.609 95.736C310.153 94.392 310.681 93.12 311.193 91.92C311.721 90.704 312.265 89.52 312.825 88.368H316.401C316.945 89.52 317.481 90.704 318.009 91.92C318.537 93.12 319.065 94.392 319.593 95.736C320.137 97.08 320.689 98.512 321.249 100.032C321.809 101.552 322.401 103.208 323.025 105H319.017ZM314.529 92.136C314.449 92.376 314.329 92.704 314.169 93.12C314.009 93.536 313.825 94.016 313.617 94.56C313.409 95.104 313.177 95.704 312.921 96.36C312.681 97.016 312.433 97.704 312.177 98.424H316.905C316.649 97.704 316.401 97.016 316.161 96.36C315.921 95.704 315.689 95.104 315.465 94.56C315.257 94.016 315.073 93.536 314.913 93.12C314.753 92.704 314.625 92.376 314.529 92.136ZM319.113 84.072C319.017 84.312 318.881 84.576 318.705 84.864C318.545 85.152 318.345 85.424 318.105 85.68C317.865 85.92 317.593 86.12 317.289 86.28C316.985 86.44 316.649 86.52 316.281 86.52C315.993 86.52 315.721 86.48 315.465 86.4C315.225 86.304 314.985 86.208 314.745 86.112C314.505 86 314.265 85.904 314.025 85.824C313.785 85.728 313.537 85.68 313.281 85.68C312.961 85.68 312.697 85.784 312.489 85.992C312.281 86.2 312.113 86.44 311.985 86.712L310.233 85.56C310.329 85.32 310.457 85.056 310.617 84.768C310.793 84.48 311.001 84.216 311.241 83.976C311.481 83.72 311.753 83.512 312.057 83.352C312.361 83.192 312.697 83.112 313.065 83.112C313.353 83.112 313.617 83.16 313.857 83.256C314.113 83.336 314.361 83.432 314.601 83.544C314.841 83.64 315.073 83.736 315.297 83.832C315.537 83.912 315.793 83.952 316.065 83.952C316.385 83.952 316.649 83.848 316.857 83.64C317.065 83.432 317.233 83.192 317.361 82.92L319.113 84.072ZM327.712 96.672C327.712 97.488 327.808 98.224 328 98.88C328.208 99.536 328.496 100.104 328.864 100.584C329.248 101.048 329.712 101.408 330.256 101.664C330.8 101.92 331.424 102.048 332.128 102.048C332.816 102.048 333.432 101.92 333.976 101.664C334.536 101.408 335 101.048 335.368 100.584C335.752 100.104 336.04 99.536 336.232 98.88C336.44 98.224 336.544 97.488 336.544 96.672C336.544 95.856 336.44 95.12 336.232 94.464C336.04 93.792 335.752 93.224 335.368 92.76C335 92.28 334.536 91.912 333.976 91.656C333.432 91.4 332.816 91.272 332.128 91.272C331.424 91.272 330.8 91.408 330.256 91.68C329.712 91.936 329.248 92.304 328.864 92.784C328.496 93.248 328.208 93.816 328 94.488C327.808 95.144 327.712 95.872 327.712 96.672ZM340.408 96.672C340.408 98.096 340.192 99.352 339.76 100.44C339.344 101.512 338.768 102.416 338.032 103.152C337.296 103.872 336.416 104.416 335.392 104.784C334.384 105.152 333.296 105.336 332.128 105.336C330.992 105.336 329.92 105.152 328.912 104.784C327.904 104.416 327.024 103.872 326.272 103.152C325.52 102.416 324.928 101.512 324.496 100.44C324.064 99.352 323.848 98.096 323.848 96.672C323.848 95.248 324.072 94 324.52 92.928C324.968 91.84 325.568 90.928 326.32 90.192C327.088 89.456 327.968 88.904 328.96 88.536C329.968 88.168 331.024 87.984 332.128 87.984C333.264 87.984 334.336 88.168 335.344 88.536C336.352 88.904 337.232 89.456 337.984 90.192C338.736 90.928 339.328 91.84 339.76 92.928C340.192 94 340.408 95.248 340.408 96.672ZM354.287 88.176C356.767 88.176 358.671 88.616 359.999 89.496C361.327 90.36 361.991 91.784 361.991 93.768C361.991 95.768 361.319 97.216 359.975 98.112C358.631 98.992 356.711 99.432 354.215 99.432H353.039V105H349.295V88.608C350.111 88.448 350.975 88.336 351.887 88.272C352.799 88.208 353.599 88.176 354.287 88.176ZM354.527 91.368C354.255 91.368 353.983 91.376 353.711 91.392C353.455 91.408 353.231 91.424 353.039 91.44V96.24H354.215C355.511 96.24 356.487 96.064 357.143 95.712C357.799 95.36 358.127 94.704 358.127 93.744C358.127 93.28 358.039 92.896 357.863 92.592C357.703 92.288 357.463 92.048 357.143 91.872C356.839 91.68 356.463 91.552 356.015 91.488C355.567 91.408 355.071 91.368 354.527 91.368ZM369.612 88.176C372.108 88.176 374.02 88.624 375.348 89.52C376.676 90.4 377.34 91.776 377.34 93.648C377.34 94.816 377.068 95.768 376.524 96.504C375.996 97.224 375.228 97.792 374.22 98.208C374.556 98.624 374.908 99.104 375.276 99.648C375.644 100.176 376.004 100.736 376.356 101.328C376.724 101.904 377.076 102.512 377.412 103.152C377.748 103.776 378.06 104.392 378.348 105H374.148C373.844 104.456 373.532 103.904 373.212 103.344C372.908 102.784 372.588 102.24 372.252 101.712C371.932 101.184 371.612 100.688 371.292 100.224C370.972 99.744 370.652 99.312 370.332 98.928H368.484V105H364.74V88.608C365.556 88.448 366.396 88.336 367.26 88.272C368.14 88.208 368.924 88.176 369.612 88.176ZM369.828 91.368C369.556 91.368 369.308 91.376 369.084 91.392C368.876 91.408 368.676 91.424 368.484 91.44V95.952H369.54C370.948 95.952 371.956 95.776 372.564 95.424C373.172 95.072 373.476 94.472 373.476 93.624C373.476 92.808 373.164 92.232 372.54 91.896C371.932 91.544 371.028 91.368 369.828 91.368ZM383.47 96.672C383.47 97.488 383.566 98.224 383.758 98.88C383.966 99.536 384.254 100.104 384.622 100.584C385.006 101.048 385.47 101.408 386.014 101.664C386.558 101.92 387.182 102.048 387.886 102.048C388.574 102.048 389.19 101.92 389.734 101.664C390.294 101.408 390.758 101.048 391.126 100.584C391.51 100.104 391.798 99.536 391.99 98.88C392.198 98.224 392.302 97.488 392.302 96.672C392.302 95.856 392.198 95.12 391.99 94.464C391.798 93.792 391.51 93.224 391.126 92.76C390.758 92.28 390.294 91.912 389.734 91.656C389.19 91.4 388.574 91.272 387.886 91.272C387.182 91.272 386.558 91.408 386.014 91.68C385.47 91.936 385.006 92.304 384.622 92.784C384.254 93.248 383.966 93.816 383.758 94.488C383.566 95.144 383.47 95.872 383.47 96.672ZM396.166 96.672C396.166 98.096 395.95 99.352 395.518 100.44C395.102 101.512 394.526 102.416 393.79 103.152C393.054 103.872 392.174 104.416 391.15 104.784C390.142 105.152 389.054 105.336 387.886 105.336C386.75 105.336 385.678 105.152 384.67 104.784C383.662 104.416 382.782 103.872 382.03 103.152C381.278 102.416 380.686 101.512 380.254 100.44C379.822 99.352 379.606 98.096 379.606 96.672C379.606 95.248 379.83 94 380.278 92.928C380.726 91.84 381.326 90.928 382.078 90.192C382.846 89.456 383.726 88.904 384.718 88.536C385.726 88.168 386.782 87.984 387.886 87.984C389.022 87.984 390.094 88.168 391.102 88.536C392.11 88.904 392.99 89.456 393.742 90.192C394.494 90.928 395.086 91.84 395.518 92.928C395.95 94 396.166 95.248 396.166 96.672ZM399.287 105V88.368H410.423V91.512H403.031V94.992H409.607V98.136H403.031V105H399.287ZM413.068 88.368H416.812V105H413.068V88.368ZM425.198 102.144C425.726 102.144 426.158 102.104 426.494 102.024C426.846 101.928 427.126 101.808 427.334 101.664C427.542 101.504 427.686 101.32 427.766 101.112C427.846 100.904 427.886 100.672 427.886 100.416C427.886 99.872 427.63 99.424 427.118 99.072C426.606 98.704 425.726 98.312 424.478 97.896C423.934 97.704 423.39 97.488 422.846 97.248C422.302 96.992 421.814 96.68 421.382 96.312C420.95 95.928 420.598 95.472 420.326 94.944C420.054 94.4 419.918 93.744 419.918 92.976C419.918 92.208 420.062 91.52 420.35 90.912C420.638 90.288 421.046 89.76 421.574 89.328C422.102 88.896 422.742 88.568 423.494 88.344C424.246 88.104 425.094 87.984 426.038 87.984C427.158 87.984 428.126 88.104 428.942 88.344C429.758 88.584 430.43 88.848 430.958 89.136L429.878 92.088C429.414 91.848 428.894 91.64 428.318 91.464C427.758 91.272 427.078 91.176 426.278 91.176C425.382 91.176 424.734 91.304 424.334 91.56C423.95 91.8 423.758 92.176 423.758 92.688C423.758 92.992 423.83 93.248 423.974 93.456C424.118 93.664 424.318 93.856 424.574 94.032C424.846 94.192 425.15 94.344 425.486 94.488C425.838 94.616 426.222 94.752 426.638 94.896C427.502 95.216 428.254 95.536 428.894 95.856C429.534 96.16 430.062 96.52 430.478 96.936C430.91 97.352 431.23 97.84 431.438 98.4C431.646 98.96 431.75 99.64 431.75 100.44C431.75 101.992 431.206 103.2 430.118 104.064C429.03 104.912 427.39 105.336 425.198 105.336C424.462 105.336 423.798 105.288 423.206 105.192C422.614 105.112 422.086 105.008 421.622 104.88C421.174 104.752 420.782 104.616 420.446 104.472C420.126 104.328 419.854 104.192 419.63 104.064L420.686 101.088C421.182 101.36 421.79 101.608 422.51 101.832C423.246 102.04 424.142 102.144 425.198 102.144ZM439.167 102.144C439.695 102.144 440.127 102.104 440.463 102.024C440.815 101.928 441.095 101.808 441.303 101.664C441.511 101.504 441.655 101.32 441.735 101.112C441.815 100.904 441.855 100.672 441.855 100.416C441.855 99.872 441.599 99.424 441.087 99.072C440.575 98.704 439.695 98.312 438.447 97.896C437.903 97.704 437.359 97.488 436.815 97.248C436.271 96.992 435.783 96.68 435.351 96.312C434.919 95.928 434.567 95.472 434.295 94.944C434.023 94.4 433.887 93.744 433.887 92.976C433.887 92.208 434.031 91.52 434.319 90.912C434.607 90.288 435.015 89.76 435.543 89.328C436.071 88.896 436.711 88.568 437.463 88.344C438.215 88.104 439.063 87.984 440.007 87.984C441.127 87.984 442.095 88.104 442.911 88.344C443.727 88.584 444.399 88.848 444.927 89.136L443.847 92.088C443.383 91.848 442.863 91.64 442.287 91.464C441.727 91.272 441.047 91.176 440.247 91.176C439.351 91.176 438.703 91.304 438.303 91.56C437.919 91.8 437.727 92.176 437.727 92.688C437.727 92.992 437.799 93.248 437.943 93.456C438.087 93.664 438.287 93.856 438.543 94.032C438.815 94.192 439.119 94.344 439.455 94.488C439.807 94.616 440.191 94.752 440.607 94.896C441.471 95.216 442.223 95.536 442.863 95.856C443.503 96.16 444.031 96.52 444.447 96.936C444.879 97.352 445.199 97.84 445.407 98.4C445.615 98.96 445.719 99.64 445.719 100.44C445.719 101.992 445.175 103.2 444.087 104.064C442.999 104.912 441.359 105.336 439.167 105.336C438.431 105.336 437.767 105.288 437.175 105.192C436.583 105.112 436.055 105.008 435.591 104.88C435.143 104.752 434.751 104.616 434.415 104.472C434.095 104.328 433.823 104.192 433.599 104.064L434.655 101.088C435.151 101.36 435.759 101.608 436.479 101.832C437.215 102.04 438.111 102.144 439.167 102.144ZM448.6 88.368H452.344V105H448.6V88.368ZM459.337 96.672C459.337 97.488 459.433 98.224 459.625 98.88C459.833 99.536 460.121 100.104 460.489 100.584C460.873 101.048 461.337 101.408 461.881 101.664C462.425 101.92 463.049 102.048 463.753 102.048C464.441 102.048 465.057 101.92 465.601 101.664C466.161 101.408 466.625 101.048 466.993 100.584C467.377 100.104 467.665 99.536 467.857 98.88C468.065 98.224 468.169 97.488 468.169 96.672C468.169 95.856 468.065 95.12 467.857 94.464C467.665 93.792 467.377 93.224 466.993 92.76C466.625 92.28 466.161 91.912 465.601 91.656C465.057 91.4 464.441 91.272 463.753 91.272C463.049 91.272 462.425 91.408 461.881 91.68C461.337 91.936 460.873 92.304 460.489 92.784C460.121 93.248 459.833 93.816 459.625 94.488C459.433 95.144 459.337 95.872 459.337 96.672ZM472.033 96.672C472.033 98.096 471.817 99.352 471.385 100.44C470.969 101.512 470.393 102.416 469.657 103.152C468.921 103.872 468.041 104.416 467.017 104.784C466.009 105.152 464.921 105.336 463.753 105.336C462.617 105.336 461.545 105.152 460.537 104.784C459.529 104.416 458.649 103.872 457.897 103.152C457.145 102.416 456.553 101.512 456.121 100.44C455.689 99.352 455.473 98.096 455.473 96.672C455.473 95.248 455.697 94 456.145 92.928C456.593 91.84 457.193 90.928 457.945 90.192C458.713 89.456 459.593 88.904 460.585 88.536C461.593 88.168 462.649 87.984 463.753 87.984C464.889 87.984 465.961 88.168 466.969 88.536C467.977 88.904 468.857 89.456 469.609 90.192C470.361 90.928 470.953 91.84 471.385 92.928C471.817 94 472.033 95.248 472.033 96.672ZM486.314 105C485.242 103.096 484.082 101.216 482.834 99.36C481.586 97.504 480.258 95.752 478.85 94.104V105H475.154V88.368H478.202C478.73 88.896 479.314 89.544 479.954 90.312C480.594 91.08 481.242 91.904 481.898 92.784C482.57 93.648 483.234 94.552 483.89 95.496C484.546 96.424 485.162 97.32 485.738 98.184V88.368H489.458V105H486.314ZM504.431 105C504.255 104.424 504.055 103.832 503.831 103.224C503.623 102.616 503.415 102.008 503.207 101.4H496.727C496.519 102.008 496.303 102.616 496.079 103.224C495.871 103.832 495.679 104.424 495.503 105H491.615C492.239 103.208 492.831 101.552 493.391 100.032C493.951 98.512 494.495 97.08 495.023 95.736C495.567 94.392 496.095 93.12 496.607 91.92C497.135 90.704 497.679 89.52 498.239 88.368H501.815C502.359 89.52 502.895 90.704 503.423 91.92C503.951 93.12 504.479 94.392 505.007 95.736C505.551 97.08 506.103 98.512 506.663 100.032C507.223 101.552 507.815 103.208 508.439 105H504.431ZM499.943 92.136C499.863 92.376 499.743 92.704 499.583 93.12C499.423 93.536 499.239 94.016 499.031 94.56C498.823 95.104 498.591 95.704 498.335 96.36C498.095 97.016 497.847 97.704 497.591 98.424H502.319C502.063 97.704 501.815 97.016 501.575 96.36C501.335 95.704 501.103 95.104 500.879 94.56C500.671 94.016 500.487 93.536 500.327 93.12C500.167 92.704 500.039 92.376 499.943 92.136ZM521.704 101.784V105H510.592V88.368H514.336V101.784H521.704Z" fill="white"/>
</svg>
