<svg width="650" height="205" viewBox="0 0 650 205" fill="none" xmlns="http://www.w3.org/2000/svg">
<rect width="593" height="205" fill="#8B1CDA"/>
<path d="M77.594 133.915C76.1311 132.452 73.7611 132.452 72.2987 133.915L53.4413 152.778C51.9784 154.24 51.9784 156.609 53.4413 158.072C54.1728 158.804 55.1304 159.167 56.0885 159.167C57.0466 159.167 58.0047 158.804 58.739 158.072L77.5963 139.21C79.0565 137.752 79.0565 135.383 77.594 133.915Z" fill="white"/>
<path d="M136.938 79.149C133.264 79.149 130.28 82.1357 130.28 85.807C130.28 89.4768 133.264 92.4626 136.938 92.4626C140.612 92.4626 143.596 89.4773 143.596 85.807C143.596 82.1357 140.612 79.149 136.938 79.149Z" fill="white"/>
<path d="M195.7 28.7106C189.44 22.4497 180.682 19 171.052 19C158.482 19 145.586 24.6868 135.668 34.6078C130 40.2775 125.611 47.1021 122.956 54.3671L110.906 73.2546C109.048 72.6731 106.491 72.1358 103.377 72.1358C92.2776 72.1358 75.7117 78.8388 59.8215 110.766C59.0557 112.3 59.4337 114.152 60.7355 115.279C62.0373 116.391 63.9316 116.478 65.3333 115.494C65.4675 115.401 78.7518 106.112 89.2254 106.112C89.981 106.112 90.7004 106.166 91.378 106.271L84.6518 117.127C83.7517 118.578 83.9491 120.455 85.1292 121.688L103.853 141.243C105.091 142.54 107.078 142.774 108.587 141.803L119.936 134.484C121.111 141.277 121.738 153.613 113.102 161.141C111.747 162.324 111.422 164.303 112.329 165.858C113.014 167.031 114.26 167.709 115.562 167.709C115.981 167.709 116.405 167.64 116.815 167.489C117.254 167.333 159.79 151.73 152.767 114.142L174.535 99.5794C179.099 97.4022 183.41 94.5167 187.359 90.9964C187.632 90.8088 187.881 90.5868 188.09 90.3369L188.205 90.2348C188.746 89.7532 189.284 89.2692 189.797 88.7523C207.977 70.5637 210.627 43.6343 195.7 28.7106ZM136.938 99.9519C129.136 99.9519 122.791 93.606 122.791 85.807C122.791 78.0056 129.136 71.6598 136.938 71.6598C144.74 71.6598 151.085 78.0056 151.085 85.807C151.085 93.606 144.74 99.9519 136.938 99.9519ZM162.734 79.5656C152.871 79.5656 144.844 71.5404 144.844 61.6738C144.844 51.8076 152.87 43.782 162.734 43.782C172.6 43.782 180.625 51.8076 180.625 61.6738C180.625 71.5404 172.6 79.5656 162.734 79.5656Z" fill="white"/>
<path d="M162.733 51.2712C157 51.2712 152.333 55.9373 152.333 61.6738C152.333 67.4103 157 72.0764 162.733 72.0764C168.471 72.0764 173.137 67.4103 173.137 61.6738C173.137 55.9373 168.471 51.2712 162.733 51.2712Z" fill="white"/>
<path d="M92.1801 144.423L36.8434 177.03C35.0614 178.078 34.4692 180.375 35.5198 182.162C36.2169 183.349 37.4652 184 38.7479 184C39.3963 184 40.0497 183.839 40.6493 183.481L95.9855 150.873C97.7675 149.825 98.3573 147.529 97.3068 145.744C96.2586 143.974 93.9644 143.369 92.1801 144.423Z" fill="white"/>
<path d="M79.9732 164.843L61.1354 177.118C59.404 178.246 58.9122 180.567 60.0412 182.3C60.7601 183.395 61.9569 184 63.1811 184C63.8834 184 64.593 183.804 65.2241 183.395L84.062 171.123C85.7933 169.991 86.2828 167.667 85.1543 165.939C84.0253 164.204 81.7041 163.714 79.9732 164.843Z" fill="white"/>
<path d="M72.6033 153.626C73.3158 153.626 74.037 153.423 74.6733 152.999L91.5782 141.765C93.3021 140.621 93.7703 138.296 92.6241 136.575C91.4807 134.856 89.1525 134.38 87.4332 135.528L70.5288 146.762C68.8053 147.906 68.3367 150.234 69.4829 151.952C70.2018 153.043 71.3893 153.626 72.6033 153.626Z" fill="white"/>
<path d="M233.84 88V54.736H256.304V61.024H241.328V67.552H254.624V73.696H241.328V81.712H257.408V88H233.84ZM270.437 81.904C270.789 81.936 271.189 81.968 271.637 82C272.117 82 272.677 82 273.317 82C277.061 82 279.829 81.056 281.621 79.168C283.445 77.28 284.357 74.672 284.357 71.344C284.357 67.856 283.493 65.216 281.765 63.424C280.037 61.632 277.301 60.736 273.557 60.736C273.045 60.736 272.517 60.752 271.973 60.784C271.429 60.784 270.917 60.816 270.437 60.88V81.904ZM292.085 71.344C292.085 74.224 291.637 76.736 290.741 78.88C289.845 81.024 288.565 82.8 286.901 84.208C285.269 85.616 283.269 86.672 280.901 87.376C278.533 88.08 275.877 88.432 272.933 88.432C271.589 88.432 270.021 88.368 268.229 88.24C266.437 88.144 264.677 87.92 262.949 87.568V55.168C264.677 54.848 266.469 54.64 268.325 54.544C270.213 54.416 271.829 54.352 273.173 54.352C276.021 54.352 278.597 54.672 280.901 55.312C283.237 55.952 285.237 56.96 286.901 58.336C288.565 59.712 289.845 61.472 290.741 63.616C291.637 65.76 292.085 68.336 292.085 71.344ZM311.348 88.672C309.012 88.672 306.996 88.352 305.3 87.712C303.604 87.04 302.196 86.128 301.076 84.976C299.988 83.792 299.172 82.4 298.628 80.8C298.116 79.168 297.86 77.376 297.86 75.424V54.736H305.348V74.8C305.348 76.144 305.492 77.296 305.78 78.256C306.1 79.184 306.516 79.952 307.028 80.56C307.572 81.136 308.212 81.552 308.948 81.808C309.716 82.064 310.548 82.192 311.444 82.192C313.268 82.192 314.74 81.632 315.86 80.512C317.012 79.392 317.588 77.488 317.588 74.8V54.736H325.076V75.424C325.076 77.376 324.804 79.168 324.26 80.8C323.716 82.432 322.884 83.84 321.764 85.024C320.644 86.176 319.22 87.072 317.492 87.712C315.764 88.352 313.716 88.672 311.348 88.672ZM332.278 54.736H339.766V88H332.278V54.736ZM356.297 54.736C356.873 55.792 357.529 57.104 358.265 58.672C359.033 60.208 359.817 61.888 360.617 63.712C361.449 65.504 362.265 67.344 363.065 69.232C363.865 71.12 364.617 72.896 365.321 74.56C366.025 72.896 366.777 71.12 367.577 69.232C368.377 67.344 369.177 65.504 369.977 63.712C370.809 61.888 371.593 60.208 372.329 58.672C373.097 57.104 373.769 55.792 374.345 54.736H381.161C381.481 56.944 381.769 59.424 382.025 62.176C382.313 64.896 382.553 67.744 382.745 70.72C382.969 73.664 383.161 76.624 383.321 79.6C383.513 82.576 383.673 85.376 383.801 88H376.505C376.409 84.768 376.281 81.248 376.121 77.44C375.961 73.632 375.721 69.792 375.401 65.92C374.825 67.264 374.185 68.752 373.481 70.384C372.777 72.016 372.073 73.648 371.369 75.28C370.697 76.912 370.041 78.48 369.401 79.984C368.761 81.456 368.217 82.72 367.769 83.776H362.537C362.089 82.72 361.545 81.456 360.905 79.984C360.265 78.48 359.593 76.912 358.889 75.28C358.217 73.648 357.529 72.016 356.825 70.384C356.121 68.752 355.481 67.264 354.905 65.92C354.585 69.792 354.345 73.632 354.185 77.44C354.025 81.248 353.897 84.768 353.801 88H346.505C346.633 85.376 346.777 82.576 346.937 79.6C347.129 76.624 347.321 73.664 347.513 70.72C347.737 67.744 347.977 64.896 348.233 62.176C348.521 59.424 348.825 56.944 349.145 54.736H356.297ZM400.527 54.352C405.487 54.352 409.295 55.232 411.951 56.992C414.607 58.72 415.935 61.568 415.935 65.536C415.935 69.536 414.591 72.432 411.903 74.224C409.215 75.984 405.375 76.864 400.383 76.864H398.031V88H390.543V55.216C392.175 54.896 393.903 54.672 395.727 54.544C397.551 54.416 399.151 54.352 400.527 54.352ZM401.007 60.736C400.463 60.736 399.919 60.752 399.375 60.784C398.863 60.816 398.415 60.848 398.031 60.88V70.48H400.383C402.975 70.48 404.927 70.128 406.239 69.424C407.551 68.72 408.207 67.408 408.207 65.488C408.207 64.56 408.031 63.792 407.679 63.184C407.359 62.576 406.879 62.096 406.239 61.744C405.631 61.36 404.879 61.104 403.983 60.976C403.087 60.816 402.095 60.736 401.007 60.736ZM434.442 88.672C432.106 88.672 430.09 88.352 428.394 87.712C426.698 87.04 425.29 86.128 424.17 84.976C423.082 83.792 422.266 82.4 421.722 80.8C421.21 79.168 420.954 77.376 420.954 75.424V54.736H428.442V74.8C428.442 76.144 428.586 77.296 428.874 78.256C429.194 79.184 429.61 79.952 430.122 80.56C430.666 81.136 431.306 81.552 432.042 81.808C432.81 82.064 433.642 82.192 434.538 82.192C436.362 82.192 437.834 81.632 438.954 80.512C440.106 79.392 440.682 77.488 440.682 74.8V54.736H448.17V75.424C448.17 77.376 447.898 79.168 447.354 80.8C446.81 82.432 445.978 83.84 444.858 85.024C443.738 86.176 442.314 87.072 440.586 87.712C438.858 88.352 436.81 88.672 434.442 88.672ZM477.595 81.568V88H455.371V54.736H462.859V81.568H477.595ZM492.287 82.288C493.343 82.288 494.207 82.208 494.879 82.048C495.583 81.856 496.143 81.616 496.559 81.328C496.975 81.008 497.263 80.64 497.423 80.224C497.583 79.808 497.663 79.344 497.663 78.832C497.663 77.744 497.151 76.848 496.127 76.144C495.103 75.408 493.343 74.624 490.847 73.792C489.759 73.408 488.671 72.976 487.583 72.496C486.495 71.984 485.519 71.36 484.655 70.624C483.791 69.856 483.087 68.944 482.543 67.888C481.999 66.8 481.727 65.488 481.727 63.952C481.727 62.416 482.015 61.04 482.591 59.824C483.167 58.576 483.983 57.52 485.039 56.656C486.095 55.792 487.375 55.136 488.879 54.688C490.383 54.208 492.079 53.968 493.967 53.968C496.207 53.968 498.143 54.208 499.775 54.688C501.407 55.168 502.751 55.696 503.807 56.272L501.647 62.176C500.719 61.696 499.679 61.28 498.527 60.928C497.407 60.544 496.047 60.352 494.447 60.352C492.655 60.352 491.359 60.608 490.559 61.12C489.791 61.6 489.407 62.352 489.407 63.376C489.407 63.984 489.551 64.496 489.839 64.912C490.127 65.328 490.527 65.712 491.039 66.064C491.583 66.384 492.191 66.688 492.863 66.976C493.567 67.232 494.335 67.504 495.167 67.792C496.895 68.432 498.399 69.072 499.679 69.712C500.959 70.32 502.015 71.04 502.847 71.872C503.711 72.704 504.351 73.68 504.767 74.8C505.183 75.92 505.391 77.28 505.391 78.88C505.391 81.984 504.303 84.4 502.127 86.128C499.951 87.824 496.671 88.672 492.287 88.672C490.815 88.672 489.487 88.576 488.303 88.384C487.119 88.224 486.063 88.016 485.135 87.76C484.239 87.504 483.455 87.232 482.783 86.944C482.143 86.656 481.599 86.384 481.151 86.128L483.263 80.176C484.255 80.72 485.471 81.216 486.911 81.664C488.383 82.08 490.175 82.288 492.287 82.288ZM517.441 71.344C517.441 72.976 517.633 74.448 518.017 75.76C518.433 77.072 519.009 78.208 519.745 79.168C520.513 80.096 521.441 80.816 522.529 81.328C523.617 81.84 524.865 82.096 526.273 82.096C527.649 82.096 528.881 81.84 529.969 81.328C531.089 80.816 532.017 80.096 532.753 79.168C533.521 78.208 534.097 77.072 534.481 75.76C534.897 74.448 535.105 72.976 535.105 71.344C535.105 69.712 534.897 68.24 534.481 66.928C534.097 65.584 533.521 64.448 532.753 63.52C532.017 62.56 531.089 61.824 529.969 61.312C528.881 60.8 527.649 60.544 526.273 60.544C524.865 60.544 523.617 60.816 522.529 61.36C521.441 61.872 520.513 62.608 519.745 63.568C519.009 64.496 518.433 65.632 518.017 66.976C517.633 68.288 517.441 69.744 517.441 71.344ZM542.833 71.344C542.833 74.192 542.401 76.704 541.537 78.88C540.705 81.024 539.553 82.832 538.081 84.304C536.609 85.744 534.849 86.832 532.801 87.568C530.785 88.304 528.609 88.672 526.273 88.672C524.001 88.672 521.857 88.304 519.841 87.568C517.825 86.832 516.065 85.744 514.561 84.304C513.057 82.832 511.873 81.024 511.009 78.88C510.145 76.704 509.713 74.192 509.713 71.344C509.713 68.496 510.161 66 511.057 63.856C511.953 61.68 513.153 59.856 514.657 58.384C516.193 56.912 517.953 55.808 519.937 55.072C521.953 54.336 524.065 53.968 526.273 53.968C528.545 53.968 530.689 54.336 532.705 55.072C534.721 55.808 536.481 56.912 537.985 58.384C539.489 59.856 540.673 61.68 541.537 63.856C542.401 66 542.833 68.496 542.833 71.344Z" fill="white"/>
<path d="M225.064 115.672C225.064 116.488 225.16 117.224 225.352 117.88C225.56 118.536 225.848 119.104 226.216 119.584C226.6 120.048 227.064 120.408 227.608 120.664C228.152 120.92 228.776 121.048 229.48 121.048C230.168 121.048 230.784 120.92 231.328 120.664C231.888 120.408 232.352 120.048 232.72 119.584C233.104 119.104 233.392 118.536 233.584 117.88C233.792 117.224 233.896 116.488 233.896 115.672C233.896 114.856 233.792 114.12 233.584 113.464C233.392 112.792 233.104 112.224 232.72 111.76C232.352 111.28 231.888 110.912 231.328 110.656C230.784 110.4 230.168 110.272 229.48 110.272C228.776 110.272 228.152 110.408 227.608 110.68C227.064 110.936 226.6 111.304 226.216 111.784C225.848 112.248 225.56 112.816 225.352 113.488C225.16 114.144 225.064 114.872 225.064 115.672ZM237.76 115.672C237.76 117.096 237.544 118.352 237.112 119.44C236.696 120.512 236.12 121.416 235.384 122.152C234.648 122.872 233.768 123.416 232.744 123.784C231.736 124.152 230.648 124.336 229.48 124.336C228.344 124.336 227.272 124.152 226.264 123.784C225.256 123.416 224.376 122.872 223.624 122.152C222.872 121.416 222.28 120.512 221.848 119.44C221.416 118.352 221.2 117.096 221.2 115.672C221.2 114.248 221.424 113 221.872 111.928C222.32 110.84 222.92 109.928 223.672 109.192C224.44 108.456 225.32 107.904 226.312 107.536C227.32 107.168 228.376 106.984 229.48 106.984C230.616 106.984 231.688 107.168 232.696 107.536C233.704 107.904 234.584 108.456 235.336 109.192C236.088 109.928 236.68 110.84 237.112 111.928C237.544 113 237.76 114.248 237.76 115.672ZM245.753 107.176C248.249 107.176 250.161 107.624 251.489 108.52C252.817 109.4 253.481 110.776 253.481 112.648C253.481 113.816 253.209 114.768 252.665 115.504C252.137 116.224 251.369 116.792 250.361 117.208C250.697 117.624 251.049 118.104 251.417 118.648C251.785 119.176 252.145 119.736 252.497 120.328C252.865 120.904 253.217 121.512 253.553 122.152C253.889 122.776 254.201 123.392 254.489 124H250.289C249.985 123.456 249.673 122.904 249.353 122.344C249.049 121.784 248.729 121.24 248.393 120.712C248.073 120.184 247.753 119.688 247.433 119.224C247.113 118.744 246.793 118.312 246.473 117.928H244.625V124H240.881V107.608C241.697 107.448 242.537 107.336 243.401 107.272C244.281 107.208 245.065 107.176 245.753 107.176ZM245.969 110.368C245.697 110.368 245.449 110.376 245.225 110.392C245.017 110.408 244.817 110.424 244.625 110.44V114.952H245.681C247.089 114.952 248.097 114.776 248.705 114.424C249.313 114.072 249.617 113.472 249.617 112.624C249.617 111.808 249.305 111.232 248.681 110.896C248.073 110.544 247.169 110.368 245.969 110.368ZM256.889 107.368H260.633V124H256.889V107.368ZM264.483 124V107.368H275.715V110.512H268.227V113.776H274.875V116.848H268.227V120.856H276.267V124H264.483ZM290.197 124C289.125 122.096 287.965 120.216 286.717 118.36C285.469 116.504 284.141 114.752 282.733 113.104V124H279.037V107.368H282.085C282.613 107.896 283.197 108.544 283.837 109.312C284.477 110.08 285.125 110.904 285.781 111.784C286.453 112.648 287.117 113.552 287.773 114.496C288.429 115.424 289.045 116.32 289.621 117.184V107.368H293.341V124H290.197ZM309.514 107.368V110.56H304.498V124H300.754V110.56H295.738V107.368H309.514ZM321.087 124C320.911 123.424 320.711 122.832 320.487 122.224C320.279 121.616 320.071 121.008 319.863 120.4H313.383C313.175 121.008 312.959 121.616 312.735 122.224C312.527 122.832 312.335 123.424 312.159 124H308.271C308.895 122.208 309.487 120.552 310.047 119.032C310.607 117.512 311.151 116.08 311.679 114.736C312.223 113.392 312.751 112.12 313.263 110.92C313.791 109.704 314.335 108.52 314.895 107.368H318.471C319.015 108.52 319.551 109.704 320.079 110.92C320.607 112.12 321.135 113.392 321.663 114.736C322.207 116.08 322.759 117.512 323.319 119.032C323.879 120.552 324.471 122.208 325.095 124H321.087ZM316.599 111.136C316.519 111.376 316.399 111.704 316.239 112.12C316.079 112.536 315.895 113.016 315.687 113.56C315.479 114.104 315.247 114.704 314.991 115.36C314.751 116.016 314.503 116.704 314.247 117.424H318.975C318.719 116.704 318.471 116.016 318.231 115.36C317.991 114.704 317.759 114.104 317.535 113.56C317.327 113.016 317.143 112.536 316.983 112.12C316.823 111.704 316.695 111.376 316.599 111.136ZM335.087 124.312C335.023 124.44 334.967 124.56 334.919 124.672C334.871 124.784 334.831 124.88 334.799 124.96C335.311 125.216 335.663 125.52 335.855 125.872C336.047 126.224 336.143 126.584 336.143 126.952C336.143 127.72 335.839 128.304 335.231 128.704C334.623 129.104 333.823 129.304 332.831 129.304C332.479 129.304 332.127 129.272 331.775 129.208C331.423 129.16 331.071 129.088 330.719 128.992L331.151 126.904C331.263 126.936 331.463 126.984 331.751 127.048C332.055 127.128 332.351 127.168 332.639 127.168C332.863 127.168 333.055 127.12 333.215 127.024C333.391 126.944 333.487 126.792 333.503 126.568C333.519 126.376 333.439 126.2 333.263 126.04C333.103 125.88 332.839 125.76 332.471 125.68L332.183 125.608C332.247 125.416 332.327 125.192 332.423 124.936C332.535 124.696 332.639 124.464 332.735 124.24C330.495 123.968 328.799 123.104 327.647 121.648C326.495 120.176 325.919 118.184 325.919 115.672C325.919 114.296 326.135 113.072 326.567 112C326.999 110.912 327.591 110 328.343 109.264C329.095 108.512 329.991 107.944 331.031 107.56C332.071 107.176 333.199 106.984 334.415 106.984C335.119 106.984 335.759 107.04 336.335 107.152C336.911 107.248 337.415 107.368 337.847 107.512C338.279 107.64 338.639 107.776 338.927 107.92C339.215 108.064 339.423 108.176 339.551 108.256L338.471 111.28C337.959 111.008 337.359 110.776 336.671 110.584C335.999 110.392 335.231 110.296 334.367 110.296C333.791 110.296 333.223 110.392 332.663 110.584C332.119 110.776 331.631 111.088 331.199 111.52C330.783 111.936 330.447 112.48 330.191 113.152C329.935 113.824 329.807 114.64 329.807 115.6C329.807 116.368 329.887 117.088 330.047 117.76C330.223 118.416 330.495 118.984 330.863 119.464C331.247 119.944 331.743 120.328 332.351 120.616C332.959 120.888 333.695 121.024 334.559 121.024C335.103 121.024 335.591 120.992 336.023 120.928C336.455 120.864 336.839 120.792 337.175 120.712C337.511 120.616 337.807 120.512 338.063 120.4C338.319 120.288 338.551 120.184 338.759 120.088L339.791 123.088C339.327 123.376 338.687 123.64 337.871 123.88C337.071 124.104 336.143 124.248 335.087 124.312ZM354.017 124C353.841 123.424 353.641 122.832 353.417 122.224C353.209 121.616 353.001 121.008 352.793 120.4H346.313C346.105 121.008 345.889 121.616 345.665 122.224C345.457 122.832 345.265 123.424 345.089 124H341.201C341.825 122.208 342.417 120.552 342.977 119.032C343.537 117.512 344.081 116.08 344.609 114.736C345.153 113.392 345.681 112.12 346.193 110.92C346.721 109.704 347.265 108.52 347.825 107.368H351.401C351.945 108.52 352.481 109.704 353.009 110.92C353.537 112.12 354.065 113.392 354.593 114.736C355.137 116.08 355.689 117.512 356.249 119.032C356.809 120.552 357.401 122.208 358.025 124H354.017ZM349.529 111.136C349.449 111.376 349.329 111.704 349.169 112.12C349.009 112.536 348.825 113.016 348.617 113.56C348.409 114.104 348.177 114.704 347.921 115.36C347.681 116.016 347.433 116.704 347.177 117.424H351.905C351.649 116.704 351.401 116.016 351.161 115.36C350.921 114.704 350.689 114.104 350.465 113.56C350.257 113.016 350.073 112.536 349.913 112.12C349.753 111.704 349.625 111.376 349.529 111.136ZM354.113 103.072C354.017 103.312 353.881 103.576 353.705 103.864C353.545 104.152 353.345 104.424 353.105 104.68C352.865 104.92 352.593 105.12 352.289 105.28C351.985 105.44 351.649 105.52 351.281 105.52C350.993 105.52 350.721 105.48 350.465 105.4C350.225 105.304 349.985 105.208 349.745 105.112C349.505 105 349.265 104.904 349.025 104.824C348.785 104.728 348.537 104.68 348.281 104.68C347.961 104.68 347.697 104.784 347.489 104.992C347.281 105.2 347.113 105.44 346.985 105.712L345.233 104.56C345.329 104.32 345.457 104.056 345.617 103.768C345.793 103.48 346.001 103.216 346.241 102.976C346.481 102.72 346.753 102.512 347.057 102.352C347.361 102.192 347.697 102.112 348.065 102.112C348.353 102.112 348.617 102.16 348.857 102.256C349.113 102.336 349.361 102.432 349.601 102.544C349.841 102.64 350.073 102.736 350.297 102.832C350.537 102.912 350.793 102.952 351.065 102.952C351.385 102.952 351.649 102.848 351.857 102.64C352.065 102.432 352.233 102.192 352.361 101.92L354.113 103.072ZM362.712 115.672C362.712 116.488 362.808 117.224 363 117.88C363.208 118.536 363.496 119.104 363.864 119.584C364.248 120.048 364.712 120.408 365.256 120.664C365.8 120.92 366.424 121.048 367.128 121.048C367.816 121.048 368.432 120.92 368.976 120.664C369.536 120.408 370 120.048 370.368 119.584C370.752 119.104 371.04 118.536 371.232 117.88C371.44 117.224 371.544 116.488 371.544 115.672C371.544 114.856 371.44 114.12 371.232 113.464C371.04 112.792 370.752 112.224 370.368 111.76C370 111.28 369.536 110.912 368.976 110.656C368.432 110.4 367.816 110.272 367.128 110.272C366.424 110.272 365.8 110.408 365.256 110.68C364.712 110.936 364.248 111.304 363.864 111.784C363.496 112.248 363.208 112.816 363 113.488C362.808 114.144 362.712 114.872 362.712 115.672ZM375.408 115.672C375.408 117.096 375.192 118.352 374.76 119.44C374.344 120.512 373.768 121.416 373.032 122.152C372.296 122.872 371.416 123.416 370.392 123.784C369.384 124.152 368.296 124.336 367.128 124.336C365.992 124.336 364.92 124.152 363.912 123.784C362.904 123.416 362.024 122.872 361.272 122.152C360.52 121.416 359.928 120.512 359.496 119.44C359.064 118.352 358.848 117.096 358.848 115.672C358.848 114.248 359.072 113 359.52 111.928C359.968 110.84 360.568 109.928 361.32 109.192C362.088 108.456 362.968 107.904 363.96 107.536C364.968 107.168 366.024 106.984 367.128 106.984C368.264 106.984 369.336 107.168 370.344 107.536C371.352 107.904 372.232 108.456 372.984 109.192C373.736 109.928 374.328 110.84 374.76 111.928C375.192 113 375.408 114.248 375.408 115.672ZM389.287 107.176C391.767 107.176 393.671 107.616 394.999 108.496C396.327 109.36 396.991 110.784 396.991 112.768C396.991 114.768 396.319 116.216 394.975 117.112C393.631 117.992 391.711 118.432 389.215 118.432H388.039V124H384.295V107.608C385.111 107.448 385.975 107.336 386.887 107.272C387.799 107.208 388.599 107.176 389.287 107.176ZM389.527 110.368C389.255 110.368 388.983 110.376 388.711 110.392C388.455 110.408 388.231 110.424 388.039 110.44V115.24H389.215C390.511 115.24 391.487 115.064 392.143 114.712C392.799 114.36 393.127 113.704 393.127 112.744C393.127 112.28 393.039 111.896 392.863 111.592C392.703 111.288 392.463 111.048 392.143 110.872C391.839 110.68 391.463 110.552 391.015 110.488C390.567 110.408 390.071 110.368 389.527 110.368ZM404.612 107.176C407.108 107.176 409.02 107.624 410.348 108.52C411.676 109.4 412.34 110.776 412.34 112.648C412.34 113.816 412.068 114.768 411.524 115.504C410.996 116.224 410.228 116.792 409.22 117.208C409.556 117.624 409.908 118.104 410.276 118.648C410.644 119.176 411.004 119.736 411.356 120.328C411.724 120.904 412.076 121.512 412.412 122.152C412.748 122.776 413.06 123.392 413.348 124H409.148C408.844 123.456 408.532 122.904 408.212 122.344C407.908 121.784 407.588 121.24 407.252 120.712C406.932 120.184 406.612 119.688 406.292 119.224C405.972 118.744 405.652 118.312 405.332 117.928H403.484V124H399.74V107.608C400.556 107.448 401.396 107.336 402.26 107.272C403.14 107.208 403.924 107.176 404.612 107.176ZM404.828 110.368C404.556 110.368 404.308 110.376 404.084 110.392C403.876 110.408 403.676 110.424 403.484 110.44V114.952H404.54C405.948 114.952 406.956 114.776 407.564 114.424C408.172 114.072 408.476 113.472 408.476 112.624C408.476 111.808 408.164 111.232 407.54 110.896C406.932 110.544 406.028 110.368 404.828 110.368ZM418.47 115.672C418.47 116.488 418.566 117.224 418.758 117.88C418.966 118.536 419.254 119.104 419.622 119.584C420.006 120.048 420.47 120.408 421.014 120.664C421.558 120.92 422.182 121.048 422.886 121.048C423.574 121.048 424.19 120.92 424.734 120.664C425.294 120.408 425.758 120.048 426.126 119.584C426.51 119.104 426.798 118.536 426.99 117.88C427.198 117.224 427.302 116.488 427.302 115.672C427.302 114.856 427.198 114.12 426.99 113.464C426.798 112.792 426.51 112.224 426.126 111.76C425.758 111.28 425.294 110.912 424.734 110.656C424.19 110.4 423.574 110.272 422.886 110.272C422.182 110.272 421.558 110.408 421.014 110.68C420.47 110.936 420.006 111.304 419.622 111.784C419.254 112.248 418.966 112.816 418.758 113.488C418.566 114.144 418.47 114.872 418.47 115.672ZM431.166 115.672C431.166 117.096 430.95 118.352 430.518 119.44C430.102 120.512 429.526 121.416 428.79 122.152C428.054 122.872 427.174 123.416 426.15 123.784C425.142 124.152 424.054 124.336 422.886 124.336C421.75 124.336 420.678 124.152 419.67 123.784C418.662 123.416 417.782 122.872 417.03 122.152C416.278 121.416 415.686 120.512 415.254 119.44C414.822 118.352 414.606 117.096 414.606 115.672C414.606 114.248 414.83 113 415.278 111.928C415.726 110.84 416.326 109.928 417.078 109.192C417.846 108.456 418.726 107.904 419.718 107.536C420.726 107.168 421.782 106.984 422.886 106.984C424.022 106.984 425.094 107.168 426.102 107.536C427.11 107.904 427.99 108.456 428.742 109.192C429.494 109.928 430.086 110.84 430.518 111.928C430.95 113 431.166 114.248 431.166 115.672ZM434.287 124V107.368H445.423V110.512H438.031V113.992H444.607V117.136H438.031V124H434.287ZM448.068 107.368H451.812V124H448.068V107.368ZM460.198 121.144C460.726 121.144 461.158 121.104 461.494 121.024C461.846 120.928 462.126 120.808 462.334 120.664C462.542 120.504 462.686 120.32 462.766 120.112C462.846 119.904 462.886 119.672 462.886 119.416C462.886 118.872 462.63 118.424 462.118 118.072C461.606 117.704 460.726 117.312 459.478 116.896C458.934 116.704 458.39 116.488 457.846 116.248C457.302 115.992 456.814 115.68 456.382 115.312C455.95 114.928 455.598 114.472 455.326 113.944C455.054 113.4 454.918 112.744 454.918 111.976C454.918 111.208 455.062 110.52 455.35 109.912C455.638 109.288 456.046 108.76 456.574 108.328C457.102 107.896 457.742 107.568 458.494 107.344C459.246 107.104 460.094 106.984 461.038 106.984C462.158 106.984 463.126 107.104 463.942 107.344C464.758 107.584 465.43 107.848 465.958 108.136L464.878 111.088C464.414 110.848 463.894 110.64 463.318 110.464C462.758 110.272 462.078 110.176 461.278 110.176C460.382 110.176 459.734 110.304 459.334 110.56C458.95 110.8 458.758 111.176 458.758 111.688C458.758 111.992 458.83 112.248 458.974 112.456C459.118 112.664 459.318 112.856 459.574 113.032C459.846 113.192 460.15 113.344 460.486 113.488C460.838 113.616 461.222 113.752 461.638 113.896C462.502 114.216 463.254 114.536 463.894 114.856C464.534 115.16 465.062 115.52 465.478 115.936C465.91 116.352 466.23 116.84 466.438 117.4C466.646 117.96 466.75 118.64 466.75 119.44C466.75 120.992 466.206 122.2 465.118 123.064C464.03 123.912 462.39 124.336 460.198 124.336C459.462 124.336 458.798 124.288 458.206 124.192C457.614 124.112 457.086 124.008 456.622 123.88C456.174 123.752 455.782 123.616 455.446 123.472C455.126 123.328 454.854 123.192 454.63 123.064L455.686 120.088C456.182 120.36 456.79 120.608 457.51 120.832C458.246 121.04 459.142 121.144 460.198 121.144ZM474.167 121.144C474.695 121.144 475.127 121.104 475.463 121.024C475.815 120.928 476.095 120.808 476.303 120.664C476.511 120.504 476.655 120.32 476.735 120.112C476.815 119.904 476.855 119.672 476.855 119.416C476.855 118.872 476.599 118.424 476.087 118.072C475.575 117.704 474.695 117.312 473.447 116.896C472.903 116.704 472.359 116.488 471.815 116.248C471.271 115.992 470.783 115.68 470.351 115.312C469.919 114.928 469.567 114.472 469.295 113.944C469.023 113.4 468.887 112.744 468.887 111.976C468.887 111.208 469.031 110.52 469.319 109.912C469.607 109.288 470.015 108.76 470.543 108.328C471.071 107.896 471.711 107.568 472.463 107.344C473.215 107.104 474.063 106.984 475.007 106.984C476.127 106.984 477.095 107.104 477.911 107.344C478.727 107.584 479.399 107.848 479.927 108.136L478.847 111.088C478.383 110.848 477.863 110.64 477.287 110.464C476.727 110.272 476.047 110.176 475.247 110.176C474.351 110.176 473.703 110.304 473.303 110.56C472.919 110.8 472.727 111.176 472.727 111.688C472.727 111.992 472.799 112.248 472.943 112.456C473.087 112.664 473.287 112.856 473.543 113.032C473.815 113.192 474.119 113.344 474.455 113.488C474.807 113.616 475.191 113.752 475.607 113.896C476.471 114.216 477.223 114.536 477.863 114.856C478.503 115.16 479.031 115.52 479.447 115.936C479.879 116.352 480.199 116.84 480.407 117.4C480.615 117.96 480.719 118.64 480.719 119.44C480.719 120.992 480.175 122.2 479.087 123.064C477.999 123.912 476.359 124.336 474.167 124.336C473.431 124.336 472.767 124.288 472.175 124.192C471.583 124.112 471.055 124.008 470.591 123.88C470.143 123.752 469.751 123.616 469.415 123.472C469.095 123.328 468.823 123.192 468.599 123.064L469.655 120.088C470.151 120.36 470.759 120.608 471.479 120.832C472.215 121.04 473.111 121.144 474.167 121.144ZM483.6 107.368H487.344V124H483.6V107.368ZM494.337 115.672C494.337 116.488 494.433 117.224 494.625 117.88C494.833 118.536 495.121 119.104 495.489 119.584C495.873 120.048 496.337 120.408 496.881 120.664C497.425 120.92 498.049 121.048 498.753 121.048C499.441 121.048 500.057 120.92 500.601 120.664C501.161 120.408 501.625 120.048 501.993 119.584C502.377 119.104 502.665 118.536 502.857 117.88C503.065 117.224 503.169 116.488 503.169 115.672C503.169 114.856 503.065 114.12 502.857 113.464C502.665 112.792 502.377 112.224 501.993 111.76C501.625 111.28 501.161 110.912 500.601 110.656C500.057 110.4 499.441 110.272 498.753 110.272C498.049 110.272 497.425 110.408 496.881 110.68C496.337 110.936 495.873 111.304 495.489 111.784C495.121 112.248 494.833 112.816 494.625 113.488C494.433 114.144 494.337 114.872 494.337 115.672ZM507.033 115.672C507.033 117.096 506.817 118.352 506.385 119.44C505.969 120.512 505.393 121.416 504.657 122.152C503.921 122.872 503.041 123.416 502.017 123.784C501.009 124.152 499.921 124.336 498.753 124.336C497.617 124.336 496.545 124.152 495.537 123.784C494.529 123.416 493.649 122.872 492.897 122.152C492.145 121.416 491.553 120.512 491.121 119.44C490.689 118.352 490.473 117.096 490.473 115.672C490.473 114.248 490.697 113 491.145 111.928C491.593 110.84 492.193 109.928 492.945 109.192C493.713 108.456 494.593 107.904 495.585 107.536C496.593 107.168 497.649 106.984 498.753 106.984C499.889 106.984 500.961 107.168 501.969 107.536C502.977 107.904 503.857 108.456 504.609 109.192C505.361 109.928 505.953 110.84 506.385 111.928C506.817 113 507.033 114.248 507.033 115.672ZM521.314 124C520.242 122.096 519.082 120.216 517.834 118.36C516.586 116.504 515.258 114.752 513.85 113.104V124H510.154V107.368H513.202C513.73 107.896 514.314 108.544 514.954 109.312C515.594 110.08 516.242 110.904 516.898 111.784C517.57 112.648 518.234 113.552 518.89 114.496C519.546 115.424 520.162 116.32 520.738 117.184V107.368H524.458V124H521.314ZM539.431 124C539.255 123.424 539.055 122.832 538.831 122.224C538.623 121.616 538.415 121.008 538.207 120.4H531.727C531.519 121.008 531.303 121.616 531.079 122.224C530.871 122.832 530.679 123.424 530.503 124H526.615C527.239 122.208 527.831 120.552 528.391 119.032C528.951 117.512 529.495 116.08 530.023 114.736C530.567 113.392 531.095 112.12 531.607 110.92C532.135 109.704 532.679 108.52 533.239 107.368H536.815C537.359 108.52 537.895 109.704 538.423 110.92C538.951 112.12 539.479 113.392 540.007 114.736C540.551 116.08 541.103 117.512 541.663 119.032C542.223 120.552 542.815 122.208 543.439 124H539.431ZM534.943 111.136C534.863 111.376 534.743 111.704 534.583 112.12C534.423 112.536 534.239 113.016 534.031 113.56C533.823 114.104 533.591 114.704 533.335 115.36C533.095 116.016 532.847 116.704 532.591 117.424H537.319C537.063 116.704 536.815 116.016 536.575 115.36C536.335 114.704 536.103 114.104 535.879 113.56C535.671 113.016 535.487 112.536 535.327 112.12C535.167 111.704 535.039 111.376 534.943 111.136ZM556.704 120.784V124H545.592V107.368H549.336V120.784H556.704Z" fill="white"/>
</svg>
