<svg width="511" height="511" viewBox="0 0 511 511" fill="none" xmlns="http://www.w3.org/2000/svg">
<g clip-path="url(#clip0)">
<path d="M510.5 150.235C509.303 123.084 504.912 104.418 498.622 88.243C492.134 71.074 482.151 55.7027 469.073 42.9244C456.295 29.9473 440.822 19.8635 423.852 13.4763C407.584 7.18656 389.015 2.79586 361.863 1.59875C334.509 0.300252 325.825 0 256.447 0C187.07 0 178.386 0.300252 151.133 1.49736C123.981 2.69447 105.315 7.08908 89.1444 13.3749C71.9715 19.8635 56.6001 29.8459 43.8219 42.9244C30.8447 55.7027 20.7648 71.1754 14.3737 88.1455C8.08402 104.418 3.69332 122.983 2.49621 150.134C1.19771 177.488 0.897461 186.172 0.897461 255.55C0.897461 324.928 1.19771 333.612 2.39482 360.864C3.59193 388.016 7.98654 406.682 14.2762 422.857C20.7648 440.026 30.8447 455.397 43.8219 468.175C56.6001 481.153 72.0729 491.236 89.043 497.624C105.315 503.913 123.88 508.304 151.035 509.501C178.284 510.702 186.972 510.998 256.35 510.998C325.728 510.998 334.412 510.702 361.664 509.501C388.816 508.304 407.482 503.913 423.653 497.624C457.995 484.346 485.146 457.195 498.424 422.857C504.709 406.585 509.104 388.016 510.301 360.864C511.498 333.612 511.798 324.928 511.798 255.55C511.798 186.172 511.697 177.488 510.5 150.235ZM464.483 358.868C463.384 383.824 459.192 397.3 455.698 406.284C447.112 428.546 429.443 446.214 407.182 454.801C398.198 458.294 384.624 462.486 359.765 463.582C332.813 464.783 324.729 465.079 256.549 465.079C188.368 465.079 180.183 464.783 153.328 463.582C128.372 462.486 114.896 458.294 105.912 454.801C94.8336 450.706 84.7498 444.218 76.565 435.733C68.0799 427.446 61.5913 417.464 57.497 406.386C54.0031 397.402 49.8113 383.824 48.7156 358.969C47.5146 332.017 47.2182 323.929 47.2182 255.749C47.2182 187.568 47.5146 179.383 48.7156 152.532C49.8113 127.576 54.0031 114.1 57.497 105.116C61.5913 94.0336 68.0799 83.9537 76.6664 75.765C84.9486 67.2799 94.9311 60.7914 106.013 56.7009C114.997 53.2071 128.575 49.0152 153.43 47.9156C180.382 46.7185 188.469 46.4182 256.646 46.4182C324.928 46.4182 333.012 46.7185 359.867 47.9156C384.823 49.0152 398.299 53.2071 407.283 56.7009C418.361 60.7914 428.445 67.2799 436.63 75.765C445.115 84.0512 451.604 94.0336 455.698 105.116C459.192 114.1 463.384 127.674 464.483 152.532C465.68 179.485 465.981 187.568 465.981 255.749C465.981 323.929 465.68 331.915 464.483 358.868Z" fill="white" fill-opacity="0.7"/>
<path d="M256.448 124.281C183.977 124.281 125.179 183.076 125.179 255.55C125.179 328.024 183.977 386.819 256.448 386.819C328.921 386.819 387.716 328.024 387.716 255.55C387.716 183.076 328.921 124.281 256.448 124.281ZM256.448 340.701C209.433 340.701 171.297 302.569 171.297 255.55C171.297 208.531 209.433 170.399 256.448 170.399C303.466 170.399 341.598 208.531 341.598 255.55C341.598 302.569 303.466 340.701 256.448 340.701V340.701Z" fill="white" fill-opacity="0.7"/>
<path d="M423.555 119.091C423.555 136.014 409.833 149.736 392.906 149.736C375.983 149.736 362.261 136.014 362.261 119.091C362.261 102.164 375.983 88.4458 392.906 88.4458C409.833 88.4458 423.555 102.164 423.555 119.091V119.091Z" fill="white" fill-opacity="0.7"/>
</g>
<defs>
<clipPath id="clip0">
<rect width="511" height="511" fill="white"/>
</clipPath>
</defs>
</svg>
