<svg width="512" height="512" viewBox="0 0 512 512" fill="none" xmlns="http://www.w3.org/2000/svg">
<path d="M480.32 128.39C451.1 128.39 424.14 118.71 402.49 102.38C377.66 83.6599 359.82 56.1999 353.52 24.5499C351.96 16.7299 351.12 8.65989 351.04 0.389893H267.57V228.47L267.47 353.4C267.47 386.8 245.72 415.12 215.57 425.08C206.82 427.97 197.37 429.34 187.53 428.8C174.97 428.11 163.2 424.32 152.97 418.2C131.2 405.18 116.44 381.56 116.04 354.54C115.41 312.31 149.55 277.88 191.75 277.88C200.08 277.88 208.08 279.24 215.57 281.71V219.37V196.96C207.67 195.79 199.63 195.18 191.5 195.18C145.31 195.18 102.11 214.38 71.2301 248.97C47.8901 275.11 33.8901 308.46 31.7301 343.43C28.9001 389.37 45.7101 433.04 78.3101 465.26C83.1001 469.99 88.1301 474.38 93.3901 478.43C121.34 499.94 155.51 511.6 191.5 511.6C199.63 511.6 207.67 511 215.57 509.83C249.19 504.85 280.21 489.46 304.69 465.26C334.77 435.53 351.39 396.06 351.57 354.05L351.14 167.49C365.49 178.56 381.18 187.72 398.02 194.83C424.21 205.88 451.98 211.48 480.56 211.47V150.86V128.37C480.58 128.39 480.34 128.39 480.32 128.39V128.39Z" fill="white" fill-opacity="0.7"/>
</svg>
