<svg width="682" height="682" viewBox="0 0 682 682" fill="none" xmlns="http://www.w3.org/2000/svg">
<path d="M647.18 181.191C639.812 153.8 618.216 132.208 590.829 124.832C540.796 111.143 340.659 111.143 340.659 111.143C340.659 111.143 140.531 111.143 90.4975 124.313C63.637 131.681 41.5141 153.804 34.1463 181.191C20.9795 231.221 20.9795 334.975 20.9795 334.975C20.9795 334.975 20.9795 439.252 34.1463 488.758C41.5219 516.145 63.1102 537.737 90.5014 545.113C141.057 558.807 340.667 558.807 340.667 558.807C340.667 558.807 540.796 558.807 590.829 545.636C618.22 538.264 639.812 516.672 647.188 489.285C660.351 439.252 660.351 335.501 660.351 335.501C660.351 335.501 660.877 231.221 647.18 181.191V181.191ZM276.94 430.826V239.123L443.363 334.975L276.94 430.826Z" fill="white" fill-opacity="0.7"/>
</svg>
