<svg width="512" height="512" viewBox="0 0 512 512" fill="none" xmlns="http://www.w3.org/2000/svg">
<path d="M256 512C397.312 512 512 397.312 512 256C512 114.688 397.312 0 256 0C114.688 0 0 114.688 0 256C0 397.312 114.688 512 256 512ZM359.936 376.661V376.683C342.72 376.683 288.341 316.352 135.509 347.669C131.477 348.715 126.208 350.357 123.221 350.357C103.701 350.357 99.968 321.152 120.96 316.693C205.504 298.027 291.904 299.669 365.589 343.744C383.168 354.965 375.701 376.661 359.936 376.661V376.661ZM387.733 308.971C385.323 308.331 386.027 310.443 374.997 304.64C310.464 266.453 214.293 251.051 128.704 274.283C123.755 275.627 121.067 276.971 116.416 276.971C93.568 276.971 87.5093 242.603 112.405 235.584C213.013 207.317 320.939 223.808 396.075 268.501C404.437 273.451 407.744 279.872 407.744 288.832C407.637 299.968 398.976 308.971 387.733 308.971V308.971ZM97.024 149.291C193.515 121.045 339.541 129.963 430.336 182.955C453.611 196.373 444.459 230.315 419.712 230.315L419.691 230.293C414.315 230.293 411.008 228.949 406.357 226.261C332.907 182.4 201.472 171.883 116.437 195.627C112.704 196.651 108.053 198.293 103.104 198.293C89.472 198.293 79.0613 187.648 79.0613 173.931C79.0613 159.915 87.744 151.979 97.024 149.291V149.291Z" fill="white" fill-opacity="0.7"/>
</svg>
