<svg width="555" height="555" viewBox="0 0 555 555" fill="none" xmlns="http://www.w3.org/2000/svg">
<path fill-rule="evenodd" clip-rule="evenodd" d="M461.55 92.687C412.872 43.9522 348.135 17.1013 279.167 17.0728C137.053 17.0728 21.3927 132.73 21.3355 274.882C21.3165 320.324 33.1874 364.682 55.751 403.782L19.1729 537.385L155.853 501.531C193.514 522.075 235.914 532.901 279.062 532.914H279.17C421.269 532.914 536.942 417.247 536.995 275.089C537.024 206.194 510.23 141.419 461.55 92.687ZM279.167 489.371H279.078C240.626 489.355 202.915 479.022 170.008 459.5L162.186 454.854L81.0775 476.132L102.726 397.053L97.6294 388.945C76.1773 354.825 64.8494 315.389 64.8685 274.898C64.913 156.745 161.049 60.6184 279.253 60.6184C336.492 60.6375 390.299 82.9566 430.758 123.463C471.216 163.97 493.485 217.811 493.466 275.073C493.415 393.235 397.285 489.371 279.167 489.371V489.371ZM396.714 328.873C390.273 325.646 358.599 310.066 352.692 307.913C346.791 305.763 342.491 304.693 338.201 311.139C333.904 317.586 321.56 332.099 317.8 336.396C314.04 340.696 310.286 341.236 303.843 338.009C297.399 334.786 276.642 327.98 252.034 306.033C232.884 288.951 219.956 267.854 216.195 261.407C212.442 254.954 216.164 251.804 219.022 248.26C225.996 239.6 232.979 230.52 235.126 226.223C237.276 221.924 236.199 218.16 234.586 214.937C232.979 211.714 220.095 180.004 214.728 167.101C209.495 154.544 204.188 156.24 200.231 156.043C196.477 155.856 192.181 155.817 187.884 155.817C183.59 155.817 176.61 157.428 170.703 163.881C164.799 170.331 148.159 185.914 148.159 217.624C148.159 249.333 171.243 279.966 174.463 284.266C177.683 288.566 219.892 353.637 284.515 381.539C299.886 388.183 311.884 392.143 321.242 395.112C336.676 400.016 350.716 399.323 361.819 397.666C374.198 395.814 399.931 382.079 405.304 367.032C410.671 351.983 410.671 339.086 409.058 336.396C407.451 333.709 403.154 332.099 396.714 328.873V328.873Z" fill="white" fill-opacity="0.7"/>
</svg>
